<svg xmlns="http://www.w3.org/2000/svg" width="68.381" height="66.672" viewBox="0 0 68.381 66.672"><path d="M56.272,66.672H12.109A12.1,12.1,0,0,1,0,54.563V12.109A12.1,12.1,0,0,1,12.109,0H56.272A12.1,12.1,0,0,1,68.381,12.109V54.563A12.1,12.1,0,0,1,56.272,66.672Z" fill="#fff"/><path d="M62.34,70.973h-42A10.36,10.36,0,0,1,10,60.631V20.343A10.36,10.36,0,0,1,20.343,10H62.312A10.342,10.342,0,0,1,72.654,20.343V60.6A10.324,10.324,0,0,1,62.34,70.973Z" transform="translate(-7.151 -7.151)" fill="#2e001f"/><path d="M59.079,71.887l7.978,15.329c.142.228.057.456-.171.456H61.928a.559.559,0,0,1-.6-.37c-1.824-3.761-3.675-7.522-5.584-11.568h-.057c-1.71,3.818-3.59,7.835-5.414,11.6a.547.547,0,0,1-.513.313h-4.7c-.285,0-.313-.228-.171-.4L52.7,72.371l-7.55-15.044a.23.23,0,0,1,.171-.4h4.9a.449.449,0,0,1,.513.313c1.8,3.761,3.619,7.636,5.328,11.425h.057c1.653-3.761,3.476-7.664,5.243-11.4.142-.228.228-.37.513-.37h4.587c.228,0,.313.171.171.4Zm9.374,4.644c0-6.639,4.416-11.824,11.425-11.824a12.633,12.633,0,0,1,1.482.057v-7.55a.286.286,0,0,1,.285-.285h4.5c.228,0,.285.085.285.228V83.312a20.294,20.294,0,0,0,.142,2.792c0,.171-.057.228-.228.313a16.972,16.972,0,0,1-7.294,1.653C72.869,88.1,68.453,84.281,68.453,76.531ZM81.36,69.237a4.309,4.309,0,0,0-1.653-.285c-3.59,0-6.1,2.764-6.1,7.351,0,5.243,2.564,7.351,5.784,7.351a5.375,5.375,0,0,0,1.966-.313Z" transform="translate(-32.04 -40.688)" fill="#fff"/></svg>