<svg xmlns="http://www.w3.org/2000/svg" width="59.511" height="84" viewBox="0 0 59.511 84"><g transform="translate(-193.633 -276.362)"><g transform="translate(193.633 276.362)"><path d="M134.144,100.62l-5.422,60.736-24.37,6.756-24.3-6.747L74.633,100.62Z" transform="translate(-74.633 -84.112)" fill="#fff"/><path d="M275.692,182.8l4.633-51.9H256v57.361Z" transform="translate(-226.245 -109.419)" fill="#fff"/><path d="M150.31,268.217l.668,7.45H167.65v-7.45Z" transform="translate(-137.894 -224.213)" fill="#2965f1"/><path d="M160.813,176.3H142.132l.677,7.45h18Z" transform="translate(-131.058 -147.38)" fill="#2965f1"/><path d="M172.748,352.258v-7.751l-.033.009-8.3-2.24-.53-5.942h-7.479l1.044,11.7,15.261,4.237Z" transform="translate(-142.993 -281.153)" fill="#2965f1"/><path d="M160,0h9.023V3.773h-5.25V7.547h5.25V11.32H160Z" transform="translate(-145.994)" fill="#fff"/><path d="M226,0h9.023V3.281h-5.25v.656h5.25v7.547H226V8.039h5.25V7.383H226Z" transform="translate(-201.166)" fill="#fff"/><path d="M292,0h9.023V3.281h-5.25v.656h5.25v7.547H292V8.039h5.25V7.383H292Z" transform="translate(-256.338)" fill="#fff"/><path d="M265.017,198.834l-.865,9.662-8.309,2.243v7.751l15.273-4.233.112-1.259,1.751-19.614.182-2,1.345-15.079H255.843v7.45h10.5l-.678,7.629h-9.82v7.45Z" transform="translate(-226.113 -147.38)" fill="#2965f1"/></g></g></svg>