<svg xmlns="http://www.w3.org/2000/svg" width="79.228" height="79.225" viewBox="0 0 79.228 79.225"><path d="M77.735,36.173,43.141,1.584a5.1,5.1,0,0,0-7.214,0L28.743,8.767l9.111,9.111A6.059,6.059,0,0,1,45.528,25.6l8.782,8.782a6.063,6.063,0,1,1-3.637,3.423l-8.19-8.19V51.17a6.06,6.06,0,1,1-4.991-.177V29.241A5.99,5.99,0,0,1,35.5,27.917,6.069,6.069,0,0,1,34.2,21.28L25.213,12.3,1.495,36.014a5.1,5.1,0,0,0,0,7.217L36.087,77.82a5.1,5.1,0,0,0,7.216,0L77.734,43.394a5.105,5.105,0,0,0,0-7.218" transform="translate(0 -0.09)" fill="#fefefe"/></svg>