<svg xmlns="http://www.w3.org/2000/svg" width="55.218" height="77.926" viewBox="0 0 55.218 77.926"><g transform="translate(-74.6)"><path d="M108.4,0h3.5V3.47h3.227V0h3.5V10.5h-3.5V7h-3.2v3.5H108.4m14.855-7h-3.09V0h9.7V3.5h-3.1v7h-3.5M131.4,0h3.668l2.253,3.7L139.57,0h3.668V10.5h-3.5V5.3l-2.45,3.775L134.837,5.3V10.5H131.4M144.973,0h3.5V7.032h4.962V10.5h-8.462" transform="translate(-28.656)" fill="#fff"/><path d="M79.623,156.974,74.6,100.6h55.218l-5.023,56.344-22.632,6.271" transform="translate(0 -85.289)" fill="#fff"/><path d="M256,184.193V131h22.571l-4.307,48.095" transform="translate(-153.791 -111.062)" fill="#fff"/><path d="M142,176.3h17.351v6.91h-9.771l.639,7.077h9.132v6.895H143.887m.3,3.47h6.94l.487,5.525,7.732,2.07v7.214L145.166,211.5" transform="translate(-57.142 -149.467)" fill="#ff5733"/><path d="M273.12,176.3H255.8v6.91h16.681m-.624,7.077H255.8v6.91h8.523l-.807,8.98-7.716,2.07v7.184l14.154-3.927" transform="translate(-153.622 -149.467)" fill="#ff5733"/></g></svg>