<svg xmlns="http://www.w3.org/2000/svg" width="71" height="71" viewBox="0 0 71 71"><g transform="translate(-1773 -3377)"><rect width="71" height="71" rx="15" transform="translate(1773 3377)" fill="#fffffd"/><path d="M194.8,309.075c1.426,2.329,3.282,4.04,6.563,4.04,2.757,0,4.518-1.378,4.518-3.282,0-2.281-1.809-3.089-4.844-4.417l-1.663-.714c-4.8-2.045-7.991-4.608-7.991-10.025,0-4.99,3.8-8.789,9.744-8.789,4.23,0,7.271,1.472,9.463,5.327l-5.181,3.327c-1.141-2.045-2.371-2.851-4.282-2.851a2.9,2.9,0,0,0-3.184,2.851c0,2,1.236,2.8,4.091,4.04l1.663.712c5.653,2.424,8.845,4.9,8.845,10.452,0,5.99-4.706,9.272-11.025,9.272-6.179,0-10.171-2.945-12.124-6.8Zm-23.5.577c1.045,1.854,2,3.422,4.282,3.422,2.186,0,3.565-.855,3.565-4.181V286.27H185.8v22.713c0,6.889-4.039,10.025-9.935,10.025-5.327,0-8.412-2.757-9.981-6.077Z" transform="translate(1625.763 3123.24)" fill="#f0db4f"/></g></svg>