<svg xmlns="http://www.w3.org/2000/svg" width="38.84" height="84.959" viewBox="0 0 38.84 84.959"><g transform="translate(-1789.499 -3729.803)"><path d="M43.469,38.223C39.03,18.64,29.777,13.426,27.417,9.741A41.918,41.918,0,0,1,24.837,4.69,5.141,5.141,0,0,1,23,8.845C20.035,11.492,7.425,21.768,6.364,44.019c-.989,20.746,15.251,33.539,17.4,34.861a4.767,4.767,0,0,0,4.639-.728c7.829-5.373,18.525-19.7,15.077-39.929" transform="translate(1783.679 3725.31)" fill="#fdfdfd" stroke="#4db33d" stroke-width="1"/><path d="M68.24,222.46c-.409,5.135-.7,8.119-1.74,11.053,0,0,.681,4.889,1.16,10.067h1.693A94.152,94.152,0,0,1,71.2,232.739C69.008,231.66,68.324,226.966,68.24,222.46Z" transform="translate(1740.949 3570.683)" fill="#fdfdfd" stroke="#4db33d" stroke-width="1"/><path d="M74.3,79.193h0c-2.215-1.024-2.856-5.816-2.955-10.282a210.459,210.459,0,0,0,.478-22.138C71.708,42.9,71.879,10.9,70.87,6.21a38.939,38.939,0,0,0,2.381,4.607c2.36,3.688,11.615,8.9,16.052,28.485C92.758,59.5,82.12,73.786,74.3,79.193Z" transform="translate(1737.846 3724.231)" fill="#fdfdfd" stroke="#4db33d" stroke-width="1"/></g></svg>