<svg xmlns="http://www.w3.org/2000/svg" width="68.203" height="76.887" viewBox="0 0 68.203 76.887"><g transform="translate(181.203 -991.038)"><path d="M204.388,238.794a5.93,5.93,0,0,1-2.955-.79l-9.406-5.569c-1.4-.786-.719-1.063-.256-1.224a18.987,18.987,0,0,0,4.253-1.939.714.714,0,0,1,.7.049l7.226,4.288a.953.953,0,0,0,.873,0L233,217.347a.888.888,0,0,0,.43-.762V184.074a.9.9,0,0,0-.436-.776l-28.163-16.249a.867.867,0,0,0-.868,0L175.8,183.3a.9.9,0,0,0-.446.769v32.511a.868.868,0,0,0,.437.755l7.715,4.457c4.189,2.095,6.749-.374,6.749-2.856V186.845a.8.8,0,0,1,.818-.811h3.568a.807.807,0,0,1,.811.811v32.1c0,5.586-3.047,8.794-8.343,8.794-1.629,0-2.913,0-6.5-1.763l-7.391-4.26a5.958,5.958,0,0,1-2.955-5.141V184.067a5.92,5.92,0,0,1,2.955-5.134l28.2-16.27a6.178,6.178,0,0,1,5.924,0l28.167,16.277a5.944,5.944,0,0,1,2.955,5.134v32.511a5.961,5.961,0,0,1-2.955,5.134l-28.167,16.27a5.921,5.921,0,0,1-2.969.79" transform="translate(-351.476 829.131)" fill="#fcfffc"/><path d="M224.754,216.835c-12.328,0-14.912-5.659-14.912-10.4a.81.81,0,0,1,.816-.811H214.3a.815.815,0,0,1,.8.69c.55,3.708,2.186,5.578,9.641,5.578,5.938,0,8.463-1.341,8.463-4.49,0-1.813-.719-3.159-9.944-4.062-7.715-.762-12.483-2.461-12.483-8.632,0-5.684,4.8-9.069,12.828-9.069,9.02,0,13.491,3.131,14.055,9.859a.821.821,0,0,1-.219.628.838.838,0,0,1-.6.261h-3.66a.809.809,0,0,1-.79-.635c-.882-3.9-3.011-5.148-8.8-5.148-6.481,0-7.236,2.257-7.236,3.949,0,2.052.889,2.652,9.633,3.808,8.66,1.15,12.772,2.772,12.772,8.858,0,6.136-5.12,9.655-14.048,9.655" transform="translate(-363.14 828.688)" fill="#fcfffc"/></g></svg>