<svg xmlns="http://www.w3.org/2000/svg" width="75" height="75" viewBox="0 0 75 75"><path d="M65.682,140a5.682,5.682,0,1,0,5.682,5.682A5.688,5.688,0,0,0,65.682,140Z" transform="translate(-46.364 -108.182)" fill="#fff"/><path d="M145.682,140a5.682,5.682,0,1,0,5.682,5.682A5.688,5.688,0,0,0,145.682,140Z" transform="translate(-108.182 -108.182)" fill="#fff"/><path d="M225.682,140a5.682,5.682,0,1,0,5.682,5.682A5.688,5.688,0,0,0,225.682,140Z" transform="translate(-170 -108.182)" fill="#fff"/><path d="M37.5,0A37.5,37.5,0,1,0,75,37.5,37.543,37.543,0,0,0,37.5,0Zm0,68.182A30.682,30.682,0,1,1,68.182,37.5,30.717,30.717,0,0,1,37.5,68.182Z" fill="#fff"/></svg>