<svg xmlns="http://www.w3.org/2000/svg" width="79.965" height="71.212" viewBox="0 0 79.965 71.212"><g transform="translate(-175.7 -78)"><path d="M255.665,113.614c0-5.3-6.634-10.318-16.8-13.431,2.347-10.366,1.3-18.614-3.292-21.255a7.146,7.146,0,0,0-3.651-.913v3.635a3.774,3.774,0,0,1,1.858.424c2.217,1.271,3.178,6.112,2.429,12.339-.179,1.532-.473,3.146-.831,4.792a78.99,78.99,0,0,0-10.35-1.777,79.5,79.5,0,0,0-6.781-8.15c5.314-4.939,10.3-7.644,13.692-7.644V78h0c-4.482,0-10.35,3.195-16.283,8.737-5.933-5.509-11.8-8.671-16.283-8.671V81.7c3.374,0,8.378,2.689,13.692,7.6a76.984,76.984,0,0,0-6.732,8.133,76.113,76.113,0,0,0-10.367,1.793c-.375-1.63-.652-3.211-.848-4.727-.766-6.226.179-11.067,2.38-12.355a3.628,3.628,0,0,1,1.874-.424V78.082h0a7.268,7.268,0,0,0-3.684.913c-4.58,2.641-5.607,10.872-3.244,21.206-10.138,3.13-16.74,8.133-16.74,13.414,0,5.3,6.634,10.318,16.8,13.431-2.347,10.366-1.3,18.614,3.292,21.255a7.165,7.165,0,0,0,3.667.913c4.482,0,10.35-3.195,16.283-8.737,5.933,5.509,11.8,8.671,16.283,8.671a7.268,7.268,0,0,0,3.684-.913c4.58-2.641,5.607-10.872,3.244-21.206C249.064,123.916,255.665,118.9,255.665,113.614Zm-21.222-10.872c-.6,2.1-1.353,4.27-2.2,6.438-.668-1.3-1.369-2.608-2.135-3.912-.75-1.3-1.548-2.575-2.347-3.814C230.075,101.8,232.308,102.221,234.443,102.743ZM226.978,120.1c-1.271,2.2-2.575,4.287-3.928,6.226-2.429.212-4.89.326-7.367.326-2.461,0-4.922-.114-7.335-.31q-2.029-2.909-3.944-6.194-1.858-3.2-3.39-6.487c1.011-2.184,2.152-4.368,3.374-6.5,1.271-2.2,2.575-4.287,3.928-6.226,2.429-.212,4.89-.326,7.367-.326,2.461,0,4.922.114,7.335.31q2.029,2.909,3.944,6.194,1.858,3.2,3.39,6.487C229.325,115.782,228.2,117.966,226.978,120.1Zm5.265-2.119c.88,2.184,1.63,4.368,2.249,6.487-2.135.522-4.385.962-6.715,1.3.8-1.255,1.6-2.543,2.347-3.863C230.874,120.607,231.575,119.287,232.243,117.983Zm-16.528,17.392a67.2,67.2,0,0,1-4.531-5.216c1.467.065,2.967.114,4.482.114,1.532,0,3.048-.033,4.531-.114A63.623,63.623,0,0,1,215.715,135.374Zm-12.127-9.6c-2.315-.342-4.548-.766-6.683-1.288.6-2.1,1.353-4.27,2.2-6.438.668,1.3,1.369,2.608,2.135,3.912S202.79,124.535,203.589,125.774Zm12.045-33.919a67.2,67.2,0,0,1,4.531,5.216c-1.467-.065-2.967-.114-4.482-.114-1.532,0-3.048.033-4.531.114A63.617,63.617,0,0,1,215.634,91.855Zm-12.062,9.6c-.8,1.255-1.6,2.543-2.347,3.863-.75,1.3-1.451,2.608-2.119,3.912-.88-2.184-1.63-4.368-2.249-6.487C198.992,102.237,201.241,101.8,203.572,101.455Zm-14.751,20.407c-5.77-2.461-9.5-5.689-9.5-8.248s3.733-5.8,9.5-8.248c1.4-.6,2.934-1.141,4.515-1.646A78.285,78.285,0,0,0,197,113.647a77.181,77.181,0,0,0-3.618,9.877C191.771,123.019,190.239,122.465,188.821,121.862Zm8.769,23.292c-2.217-1.271-3.178-6.112-2.429-12.339.179-1.532.473-3.146.831-4.792a78.991,78.991,0,0,0,10.35,1.777,79.506,79.506,0,0,0,6.781,8.15c-5.314,4.939-10.3,7.644-13.692,7.644A3.89,3.89,0,0,1,197.59,145.154Zm38.662-12.42c.766,6.226-.179,11.067-2.38,12.355a3.627,3.627,0,0,1-1.874.424c-3.374,0-8.378-2.689-13.692-7.6a76.985,76.985,0,0,0,6.732-8.133,76.113,76.113,0,0,0,10.366-1.793A45.636,45.636,0,0,1,236.253,132.734Zm6.275-10.872c-1.4.6-2.934,1.141-4.515,1.646a78.282,78.282,0,0,0-3.667-9.926,77.176,77.176,0,0,0,3.618-9.877c1.614.505,3.146,1.059,4.58,1.663,5.77,2.461,9.5,5.689,9.5,8.248C252.031,116.173,248.3,119.417,242.528,121.862Z" transform="translate(0 0)" fill="#fff"/><path d="M320.8,78.4Z" transform="translate(-121.449 -0.335)" fill="#fff"/><circle cx="7.449" cy="7.449" r="7.449" transform="translate(208.218 106.166)" fill="#fff"/><path d="M520.5,78.1Z" transform="translate(-288.599 -0.084)" fill="#fff"/></g></svg>